<?xml version="1.0" standalone="no"?>
<!DOCTYPE svg PUBLIC "-//W3C//DTD SVG 20010904//EN"
 "http://www.w3.org/TR/2001/REC-SVG-20010904/DTD/svg10.dtd">
<svg version="1.0" xmlns="http://www.w3.org/2000/svg"
 width="512.000000pt" height="512.000000pt" viewBox="0 0 512.000000 512.000000"
 preserveAspectRatio="xMidYMid meet">

<g transform="translate(0.000000,512.000000) scale(0.100000,-0.100000)"
fill="#000000" stroke="none">
<path d="M940 5113 c8 -4 21 -14 28 -25 7 -10 18 -18 24 -18 6 0 21 -10 33
-22 26 -28 54 -51 90 -74 35 -23 135 -121 135 -132 0 -8 65 -75 195 -201 l56
-55 -8 -50 c-10 -62 -10 -760 0 -798 5 -19 12 -25 22 -22 11 5 15 23 15 75 0
39 -4 69 -10 69 -6 0 -10 112 -10 315 0 191 4 315 9 315 6 0 11 19 13 43 l3
42 748 -1 c511 0 751 -3 755 -11 7 -10 47 -15 225 -30 42 -3 77 -9 77 -14 0
-4 12 -9 28 -11 18 -2 26 -8 23 -18 -3 -8 -6 -208 -7 -443 -1 -236 -5 -431 -9
-435 -4 -4 -5 81 -2 188 3 107 3 187 0 178 -2 -10 -8 -18 -13 -18 -5 0 -12
-30 -15 -67 -4 -38 -9 -77 -11 -88 -2 -11 -7 -63 -10 -115 -4 -52 -11 -98 -17
-101 -5 -4 -4 -9 4 -12 12 -4 11 -7 -1 -16 -12 -9 -13 -12 -1 -20 11 -7 11 -9
0 -14 -10 -4 -10 -6 -1 -6 6 -1 12 -11 12 -23 1 -13 7 -45 15 -73 l14 -50 0
83 c1 47 5 82 11 82 6 0 10 -43 10 -110 0 -60 -4 -110 -8 -110 -5 0 -12 -71
-16 -157 -3 -87 -11 -243 -16 -348 -5 -104 -9 -328 -10 -497 0 -199 -4 -308
-10 -308 -5 0 -10 21 -10 48 l0 47 -21 -35 c-27 -45 -89 -110 -106 -110 -7 0
-18 -9 -25 -20 -7 -11 -18 -20 -24 -20 -6 0 -22 -8 -35 -19 -13 -10 -49 -31
-79 -46 -30 -16 -61 -33 -69 -39 -15 -12 -28 -17 -189 -75 -62 -23 -124 -41
-138 -41 -29 0 -32 -7 -67 -145 -90 -357 -228 -798 -262 -835 -12 -13 -31 -20
-56 -20 -52 0 -69 9 -69 36 0 92 131 678 190 848 11 33 20 65 20 72 0 8 -17
21 -37 29 -52 22 -73 44 -73 75 0 40 24 54 93 55 l61 0 32 109 32 109 -183 -5
c-101 -3 -189 -1 -197 3 -10 7 -10 9 0 9 6 0 12 7 12 15 0 8 -4 15 -10 15 -5
0 -10 28 -11 63 -2 120 -12 167 -38 180 -37 19 -49 43 -30 62 9 9 25 18 35 19
17 3 20 16 26 142 3 76 5 146 2 154 -3 11 5 15 29 16 53 2 117 16 117 25 0 5
10 9 23 9 30 0 161 32 167 41 3 3 23 9 45 12 46 6 128 29 135 38 3 3 39 11 80
18 41 6 77 16 80 20 3 4 24 11 47 14 23 4 48 10 57 13 14 5 16 -17 16 -217 0
-123 4 -229 8 -234 4 -6 41 -20 82 -32 42 -12 98 -32 125 -44 91 -41 91 -41
87 53 -3 61 -8 86 -20 95 -14 12 -14 13 1 13 15 0 17 14 16 133 -1 72 -4 120
-6 105 -2 -16 -8 -28 -13 -28 -6 0 -11 102 -12 238 -2 181 -6 237 -15 238 -7
1 -18 2 -23 3 -6 0 -15 13 -21 29 -13 33 4 339 26 482 16 98 38 265 55 405 6
44 7 108 4 142 l-7 62 -43 -2 c-23 -1 -40 1 -38 5 7 10 -20 10 -30 1 -4 -5
-59 -8 -122 -8 -63 0 -114 3 -114 8 0 4 -5 7 -11 7 -5 0 -7 -5 -3 -12 5 -8 2
-9 -12 -3 -26 10 -284 14 -284 3 0 -4 -128 -8 -285 -8 -183 0 -285 -4 -285
-10 0 -6 -43 -10 -110 -10 -88 0 -110 -3 -110 -14 0 -8 -6 -16 -12 -18 -10 -4
-13 -91 -16 -366 -2 -199 -1 -362 2 -362 3 0 13 15 22 33 54 105 129 153 229
145 108 -9 167 -90 145 -198 -9 -47 -8 -65 10 -125 11 -38 20 -80 20 -92 0
-27 -28 -37 -64 -23 -25 9 -36 27 -60 94 -6 18 -8 17 -25 -10 -63 -104 -186
-169 -252 -134 -18 10 -19 7 -19 -65 0 -41 4 -75 8 -75 5 0 16 -129 26 -287
10 -159 22 -290 26 -293 4 -3 10 -86 13 -185 3 -99 3 -165 0 -147 l-4 32 -95
0 -94 0 0 139 c0 85 -4 141 -10 143 -7 2 -13 200 -19 556 -5 304 -11 556 -15
560 -20 20 -26 -52 -28 -343 -1 -176 -3 -303 -5 -283 -3 26 -10 39 -24 43 -11
4 -27 17 -35 31 -9 13 -22 24 -28 24 -7 0 -21 8 -32 19 -11 10 -37 24 -57 32
-20 7 -37 16 -37 20 0 12 -60 27 -131 34 l-66 7 -48 -42 c-73 -64 -117 -90
-176 -106 -129 -34 -227 -7 -312 85 -153 164 -155 416 -5 716 134 268 284 387
486 386 45 0 92 -3 105 -7 15 -4 3 12 -36 49 -32 31 -66 59 -77 62 -11 4 -20
12 -20 19 0 8 -13 16 -29 19 -16 3 -41 17 -56 31 -15 14 -40 28 -56 31 -17 4
-33 13 -35 20 -3 7 -25 20 -49 29 -24 10 -46 24 -49 31 -3 8 -17 15 -31 15
-14 0 -25 6 -25 13 0 8 -19 22 -42 33 -24 10 -45 21 -48 24 -13 14 -61 40 -75
40 -8 0 -15 4 -15 8 0 5 -17 17 -37 28 -21 10 -43 24 -50 31 -7 6 -29 17 -48
23 -19 6 -35 15 -35 19 0 4 -20 15 -45 25 -25 11 -45 23 -45 28 0 4 -7 8 -15
8 -8 0 -24 9 -34 19 -11 11 -38 25 -61 31 -23 6 -43 17 -46 25 -5 12 -54 35
-75 35 -5 0 -9 -1109 -9 -2465 l0 -2465 2560 0 2560 0 0 2561 0 2560 -335 -3
c-291 -3 -336 -5 -347 -19 -7 -9 -29 -22 -48 -29 -19 -8 -39 -20 -43 -27 -4
-7 -14 -13 -21 -13 -7 0 -21 -8 -32 -18 -10 -10 -41 -26 -69 -36 -27 -11 -54
-25 -58 -33 -4 -7 -17 -13 -27 -13 -11 0 -28 -8 -39 -19 -10 -10 -39 -26 -65
-36 -25 -10 -46 -21 -46 -26 0 -4 -16 -11 -35 -15 -19 -3 -35 -12 -35 -19 0
-7 -20 -21 -45 -32 -25 -10 -45 -21 -45 -24 0 -4 -22 -15 -50 -25 -27 -10 -50
-21 -50 -24 0 -4 -19 -15 -42 -26 -24 -10 -49 -24 -56 -31 -7 -7 -19 -13 -26
-13 -7 0 -21 -8 -32 -18 -10 -9 -38 -26 -61 -36 -24 -11 -43 -22 -43 -26 0 -4
-9 -10 -20 -13 -16 -4 -20 0 -20 21 0 33 7 42 45 66 17 11 36 28 43 38 7 10
19 18 27 18 8 0 19 9 25 20 6 11 16 20 23 20 7 0 22 8 33 18 10 10 35 27 54
38 19 10 39 25 43 32 4 6 14 12 22 12 8 0 18 6 22 13 4 7 26 21 48 32 22 11
46 26 53 33 7 6 20 12 27 12 8 0 20 8 27 19 7 10 28 22 45 25 18 4 39 15 45
25 7 9 30 25 51 34 20 10 37 22 37 26 0 5 20 16 44 25 47 18 69 46 36 46 -10
0 -25 -6 -32 -13 -7 -7 -30 -21 -50 -30 -21 -10 -38 -21 -38 -26 0 -4 -16 -15
-35 -24 -19 -9 -35 -21 -35 -26 0 -5 -13 -12 -29 -16 -15 -3 -37 -14 -47 -23
-11 -10 -35 -24 -54 -31 -19 -8 -39 -19 -45 -25 -5 -6 -27 -20 -47 -31 -21
-11 -38 -22 -38 -26 0 -4 -13 -12 -30 -19 -17 -7 -30 -16 -30 -21 0 -4 -17
-16 -37 -26 -21 -9 -44 -25 -51 -35 -7 -10 -19 -18 -27 -18 -8 0 -19 -9 -25
-20 -6 -11 -16 -20 -23 -20 -7 0 -24 -13 -39 -30 -23 -27 -29 -28 -59 -20 -19
6 -55 10 -81 10 -27 0 -48 4 -48 9 0 17 -409 40 -717 40 -163 1 -232 4 -235
12 -5 16 -476 19 -486 3 -4 -7 -67 -17 -145 -24 -146 -13 -178 -8 -191 29 -9
25 -28 51 -68 91 -21 21 -38 41 -38 45 0 4 -10 18 -22 31 -36 37 -55 61 -75
91 -10 15 -26 37 -35 47 -10 11 -20 27 -23 37 -3 9 -12 20 -20 23 -8 3 -15 12
-15 21 0 9 -9 15 -21 15 -19 0 -19 -1 -5 -16 9 -8 21 -25 28 -37 6 -12 22 -30
35 -40 12 -10 23 -27 23 -37 0 -10 7 -20 15 -24 8 -3 15 -12 15 -20 0 -8 8
-21 18 -28 10 -7 27 -26 38 -43 10 -16 27 -36 36 -43 10 -7 18 -17 18 -22 0
-5 15 -24 33 -42 49 -50 69 -86 65 -119 l-3 -31 -57 57 c-32 32 -58 62 -58 66
0 5 -5 9 -10 9 -12 0 -90 79 -90 90 0 10 -112 122 -158 158 -20 15 -46 37 -60
50 -14 12 -29 22 -33 22 -4 0 -20 11 -35 25 -15 14 -38 25 -53 24 -16 0 -20
-3 -11 -6z m1705 -433 c236 -6 432 -15 435 -20 3 -5 75 -15 160 -22 l155 -13
3 -40 3 -41 -73 4 c-40 3 -75 8 -78 13 -14 22 -276 32 -978 36 -653 4 -743 7
-738 20 3 8 6 19 6 24 0 5 23 9 50 9 28 0 50 5 50 10 0 6 19 10 43 11 23 0 87
6 142 14 61 8 156 12 245 10 80 -2 338 -8 575 -15z m848 -158 l-33 -28 0 -116
c0 -77 -4 -118 -11 -120 -8 -3 -12 -60 -12 -183 0 -149 -2 -166 -8 -95 -9 111
-11 333 -2 439 5 70 9 85 25 89 10 2 18 8 18 13 0 6 10 14 23 19 34 14 34 12
0 -18z m100 -403 c106 -53 138 -102 74 -114 -74 -14 -228 90 -190 128 13 14
75 6 116 -14z m261 -232 c-1 -85 0 -87 18 -70 12 11 41 19 82 21 56 4 65 1 94
-23 38 -32 50 -72 59 -192 l6 -92 -26 -10 c-34 -13 -84 4 -92 30 -4 11 -13 65
-20 120 -7 55 -16 103 -20 107 -23 22 -128 -158 -138 -236 -7 -55 -22 -72 -62
-72 -56 0 -58 11 -35 177 26 194 48 303 62 320 6 8 25 13 42 11 l31 -3 -1 -88z
m-870 20 c17 -12 17 -16 -4 -77 -12 -36 -31 -105 -41 -155 -19 -87 -70 -266
-89 -312 -8 -20 -17 -23 -60 -23 -43 0 -52 3 -67 28 -17 26 -149 209 -163 225
-4 4 -24 -53 -45 -127 -21 -74 -46 -149 -57 -166 -16 -27 -23 -31 -56 -28 -36
3 -38 6 -79 88 -46 93 -93 242 -96 304 -1 26 3 42 14 49 21 14 67 1 73 -21 2
-9 19 -70 37 -134 18 -65 36 -118 41 -118 4 0 8 6 8 13 0 7 17 72 39 143 31
105 43 132 63 143 32 18 73 8 90 -23 7 -13 45 -69 85 -125 l71 -102 15 48 c9
26 32 102 51 168 38 129 68 200 88 208 24 10 64 7 82 -6z m575 -21 c10 -12 5
-61 -24 -231 -20 -119 -38 -222 -41 -230 -3 -7 -17 -16 -32 -20 -15 -3 -35 -8
-46 -12 -12 -3 -16 -1 -12 6 4 6 2 11 -3 11 -13 0 -13 132 0 210 5 30 12 83
15 118 4 34 10 62 15 62 4 0 10 14 14 31 4 17 16 40 26 50 22 22 72 25 88 5z
m1019 0 c50 -26 63 -49 64 -112 0 -122 -169 -590 -247 -683 -87 -102 -282 -94
-343 14 -12 22 -21 51 -20 65 3 22 8 25 47 28 49 4 77 -16 114 -80 23 -42 32
-45 63 -20 37 29 72 96 113 214 22 62 53 150 70 196 17 45 31 89 31 96 0 8
-16 15 -44 18 -152 18 -167 193 -21 259 48 22 135 25 173 5z m-1163 -646 c8 0
15 -4 15 -8 0 -5 9 -19 20 -32 11 -13 20 -29 20 -36 0 -7 9 -16 20 -19 11 -4
27 -20 35 -36 9 -16 22 -29 30 -29 8 0 15 -6 15 -13 0 -7 11 -23 24 -34 13
-12 29 -43 37 -72 7 -28 18 -51 25 -51 13 0 18 -11 29 -67 4 -18 11 -33 16
-33 6 0 15 -13 20 -30 6 -16 14 -30 19 -30 4 0 10 -8 14 -17 13 -40 60 -92 82
-93 7 0 14 -9 17 -21 3 -11 15 -23 26 -26 12 -3 22 -13 22 -22 2 -25 4 -34 13
-60 5 -14 3 -46 -5 -81 -12 -55 -15 -58 -46 -63 -18 -3 -47 -19 -64 -36 -25
-25 -39 -31 -75 -31 -24 0 -44 -4 -44 -8 0 -22 -59 -32 -180 -32 l-130 0 0
-70 c0 -40 -4 -70 -10 -70 -6 0 -10 113 -10 320 0 176 4 320 9 320 4 0 14 141
22 313 8 171 15 279 17 240 2 -56 6 -73 17 -73z m-1328 -502 c-2 -13 -4 -3 -4
22 0 25 2 35 4 23 2 -13 2 -33 0 -45z m-548 -304 c6 -185 10 -339 7 -342 -4
-3 -6 22 -6 56 l0 62 -137 0 c-125 1 -136 2 -113 15 l25 14 -32 1 c-41 0 -42
14 -3 30 17 7 30 16 30 21 0 5 8 10 18 10 9 1 4 5 -13 9 l-30 8 27 1 c16 1 32
9 38 21 6 11 26 22 46 26 23 4 38 13 41 25 3 10 18 22 34 28 17 6 29 18 30 28
1 10 2 25 3 33 2 8 3 77 4 153 1 75 6 137 10 137 4 0 14 -151 21 -336z m288
-286 c-2 -13 -4 -3 -4 22 0 25 2 35 4 23 2 -13 2 -33 0 -45z m-230 -100 c-2
-18 -4 -4 -4 32 0 36 2 50 4 33 2 -18 2 -48 0 -65z m190 10 c-2 -13 -4 -3 -4
22 0 25 2 35 4 23 2 -13 2 -33 0 -45z m53 42 c0 -5 -4 -10 -10 -10 -5 0 -10 5
-10 10 0 6 5 10 10 10 6 0 10 -4 10 -10z m230 -100 c0 -25 -4 -30 -25 -30 -14
0 -25 -4 -25 -10 0 -14 -39 -12 -54 3 -7 7 -18 22 -24 34 -11 20 -9 22 20 26
18 2 50 5 71 5 35 2 37 0 37 -28z m1300 10 c0 -11 -4 -20 -10 -20 -5 0 -10 9
-10 20 0 11 5 20 10 20 6 0 10 -9 10 -20z m-1813 -42 c-2 -13 -4 -5 -4 17 -1
22 1 32 4 23 2 -10 2 -28 0 -40z m226 -865 c-7 -2 -21 -2 -30 0 -10 3 -4 5 12
5 17 0 24 -2 18 -5z"/>
<path d="M4440 3802 c-46 -46 -53 -89 -20 -122 23 -23 33 -24 61 -10 35 19 47
59 35 114 -6 27 -17 51 -24 54 -7 2 -30 -14 -52 -36z"/>
<path d="M984 4130 c-50 -25 -119 -90 -161 -151 -55 -79 -122 -222 -149 -318
-24 -85 -26 -105 -22 -215 4 -112 8 -129 38 -194 18 -39 43 -81 56 -93 l24
-22 28 24 c15 13 41 37 59 53 l32 29 -24 23 c-25 23 -36 84 -16 84 5 0 15 16
21 35 6 19 16 35 21 35 5 0 9 8 9 19 0 10 7 24 15 31 8 7 15 17 15 22 0 11 40
47 53 48 4 0 16 9 27 20 11 11 26 20 34 20 7 0 16 9 19 20 3 12 14 20 25 20
12 0 23 9 27 21 4 11 18 24 31 29 14 6 24 18 24 30 0 11 4 20 10 20 13 0 40
54 40 79 0 10 5 21 10 23 16 5 33 123 25 174 l-6 45 -23 -33 c-28 -42 -68 -61
-106 -53 -40 9 -43 17 -29 81 11 50 11 57 -8 82 -26 35 -48 37 -99 12z"/>
<path d="M1862 3625 c-69 -78 -118 -239 -98 -319 l6 -26 31 22 c27 20 122 142
172 221 21 33 16 76 -15 120 -27 38 -50 34 -96 -18z"/>
<path d="M1560 2855 c0 -19 5 -35 10 -35 6 0 11 -38 11 -92 l2 -93 10 59 c7
42 6 78 -3 127 -13 73 -30 92 -30 34z"/>
<path d="M2272 2521 c-8 -5 -12 -21 -10 -37 l3 -29 165 3 c91 2 168 7 172 10
4 4 10 19 13 35 l7 27 -168 0 c-93 0 -175 -4 -182 -9z m256 -18 c88 -11 36
-23 -103 -23 -83 0 -145 4 -145 9 0 5 12 12 28 14 40 6 170 7 220 0z"/>
<path d="M2894 2200 c3 -61 4 -121 0 -135 -6 -24 -9 -25 -83 -25 -42 0 -92 -3
-111 -6 l-35 -6 -22 -91 c-11 -51 -20 -93 -18 -95 4 -5 168 82 218 116 27 18
50 32 53 32 2 0 17 12 33 28 16 15 40 37 54 50 14 12 35 43 47 67 22 45 22 45
3 77 -15 27 -118 98 -141 98 -3 0 -2 -50 2 -110z"/>
</g>
</svg>
